<svg id="Layer_1" data-name="Layer 1" xmlns="http://www.w3.org/2000/svg" viewBox="0 0 237.1 19.01"><defs><style>.cls-1{fill:#fff;}</style></defs><title>joe</title><path class="cls-1" d="M12.85,13.08a5.25,5.25,0,0,1-2-.33,3.1,3.1,0,0,1-1.33-1,4.9,4.9,0,0,1-1.13.86,2.32,2.32,0,0,1-1.08.29,3.29,3.29,0,0,1-2.25-1A2.87,2.87,0,0,1,4,9.81,5.16,5.16,0,0,1,5.59,6.18,4.79,4.79,0,0,1,9.14,4.53a1,1,0,0,1,.75.33,1.16,1.16,0,0,1,.3.81q0,.64-1.07,1a5.32,5.32,0,0,0-2,.93,2.83,2.83,0,0,0-.87,2.25.85.85,0,0,0,.29.6,1.07,1.07,0,0,0,.83.3q.93,0,1.73-1.74.72-1.48,1.28-1.48a.91.91,0,0,1,.73.33,1.23,1.23,0,0,1,.28.82,4.43,4.43,0,0,1-.07.64,4.37,4.37,0,0,0-.07.64.82.82,0,0,0,.6.88,4.23,4.23,0,0,0,1,.08,2.54,2.54,0,0,0,2.06-.72A3.35,3.35,0,0,0,15.45,8a5.22,5.22,0,0,0-2.12-4.3A7.23,7.23,0,0,0,8.71,2.2a5.78,5.78,0,0,0-4.9,2.36,8.5,8.5,0,0,0-1.6,5.3,7,7,0,0,0,1.88,5,6.55,6.55,0,0,0,5,2.11,6.84,6.84,0,0,0,2-.33L13,15.9a2.48,2.48,0,0,1,.61-.17,1,1,0,0,1,.76.35,1.16,1.16,0,0,1,.32.81q0,1-2.29,1.65A12.29,12.29,0,0,1,9.14,19,8.9,8.9,0,0,1,6,18.43a8.68,8.68,0,0,1-2.71-1.56A8.93,8.93,0,0,1,0,9.86,10.5,10.5,0,0,1,2.28,3,7.88,7.88,0,0,1,8.71,0a9.34,9.34,0,0,1,6.22,2.18A7.34,7.34,0,0,1,17.65,8a5.34,5.34,0,0,1-1.18,3.72A4.67,4.67,0,0,1,12.85,13.08Z"/><path class="cls-1" d="M31.4,17.63a1.08,1.08,0,0,1-.76-.34,18.11,18.11,0,0,0-7.91-4.73l.09,2.11.05,2.12a1.09,1.09,0,0,1-.31.79,1.09,1.09,0,0,1-1.54,0,1.09,1.09,0,0,1-.31-.79q0-.85-.08-2.53t-.08-2.53a29.36,29.36,0,0,1,.21-2.94q.21-2,.21-2.93,0-.55-.1-1.62t-.1-1.62a1.75,1.75,0,0,1,.34-1.07A1.19,1.19,0,0,1,22.26,1l2.59.2a7.15,7.15,0,0,1,2.48.72q4.35,2.31,4.35,5.64a3.72,3.72,0,0,1-1.48,2.89,8.07,8.07,0,0,1-3,1.54,16.74,16.74,0,0,1,5,3.78,1.14,1.14,0,0,1,.28.73,1.08,1.08,0,0,1-.33.78A1,1,0,0,1,31.4,17.63ZM24.56,3.43,23,3.3l.11,1.3q.07.8.08,1.3A20.37,20.37,0,0,1,23,8l-.23,2.14h.95a9,9,0,0,0,4.1-.73A4.7,4.7,0,0,0,29,8.59a1.67,1.67,0,0,0,.57-1,3.57,3.57,0,0,0-1.7-2.78A6.51,6.51,0,0,0,24.56,3.43Z"/><path class="cls-1" d="M43,18.22q-.2,0-.74-.47a4.8,4.8,0,0,1-.72-.78,13.74,13.74,0,0,1-1.82.84,4,4,0,0,1-1.31.29,4.44,4.44,0,0,1-3.66-1.42,6.39,6.39,0,0,1-1.08-4.08,6.16,6.16,0,0,1,1.79-4.45,5.74,5.74,0,0,1,4.27-1.85,5.52,5.52,0,0,1,2.09.48q1.46.6,1.46,1.45a.73.73,0,0,1-.21.52,7.79,7.79,0,0,0-.17,1.34q-.06.93-.07,2.4A8.75,8.75,0,0,0,43,14.59a16,16,0,0,0,.68,1.89q.07.19.25.57l.06.18a.93.93,0,0,1-.3.71A1,1,0,0,1,43,18.22Zm-2.23-7.47a9.29,9.29,0,0,1,.06-1q.06-.54.18-1.15a5.29,5.29,0,0,0-.68-.3,1.51,1.51,0,0,0-.46-.1A3.72,3.72,0,0,0,37,9.56a4.57,4.57,0,0,0-1.21,3.13,4.58,4.58,0,0,0,.62,2.64,2.14,2.14,0,0,0,1.87.88A3.74,3.74,0,0,0,40,15.83,6.43,6.43,0,0,0,41.12,15,39,39,0,0,1,40.78,10.75Z"/><path class="cls-1" d="M59.52,18.4a1,1,0,0,1-1-.93q-.19-1.18-.39-3.33l-.37-3.33a7.31,7.31,0,0,0-.37-1.45q-.37-1-.79-1a3.76,3.76,0,0,0-1.48.68,6.12,6.12,0,0,0-1.35,1q0,1,.05,2L54.12,15a24.41,24.41,0,0,1,.2,2.8,1.07,1.07,0,0,1-.3.78,1.09,1.09,0,0,1-1.51,0,1.07,1.07,0,0,1-.3-.78q0-1.3-.26-3.84t-.26-3.84a4,4,0,0,0-.32-1.77,5.37,5.37,0,0,0-1.53,1.12l-1.27,1.42a6.53,6.53,0,0,1-.55.68q0,.64-.12,1.9t-.12,1.86a5.54,5.54,0,0,0,.1.9A5.52,5.52,0,0,1,48,17a1,1,0,0,1-.33.74,1.1,1.1,0,0,1-.77.3q-1.21,0-1.21-2.76,0-.64.12-1.92t.12-1.92q0-.57-.1-1.71T45.72,8q0-2.44,1.1-2.44a1,1,0,0,1,.77.37,1.13,1.13,0,0,1,.35.79,5.71,5.71,0,0,1-.05.63,5.65,5.65,0,0,0-.05.66l0,1.13a6.45,6.45,0,0,1,1.64-2.08,3.12,3.12,0,0,1,1.85-.93,2.32,2.32,0,0,1,2.32,1.68,3.83,3.83,0,0,1,1.41-1.18,4.27,4.27,0,0,1,1.87-.39A2.46,2.46,0,0,1,59.38,8.2a28.16,28.16,0,0,1,.44,3q.3,1.85.77,6.16a.87.87,0,0,1-.29.73A1.11,1.11,0,0,1,59.52,18.4Z"/><path class="cls-1" d="M70.22,9.24a.88.88,0,0,1-.83-.4,3.69,3.69,0,0,1-.28-1.16q-.81.2-2.48.75t-1.74,1.7a3.59,3.59,0,0,0,.63.17,10.38,10.38,0,0,1,3.67,1.21A3.65,3.65,0,0,1,71,14.78a2.88,2.88,0,0,1-1.51,2.64,6.25,6.25,0,0,1-3.18.73,7.67,7.67,0,0,1-2.69-.47q-1.65-.6-1.65-1.68a1,1,0,0,1,.34-.75,1.08,1.08,0,0,1,.77-.32,1.45,1.45,0,0,1,.86.52,2.46,2.46,0,0,0,1.16.41,7.08,7.08,0,0,0,1.21.13,5.33,5.33,0,0,0,1.59-.21q1-.31,1-1,0-1.46-2-2l-1.12-.25a6,6,0,0,1-2-.73A2.06,2.06,0,0,1,62.79,10a3.28,3.28,0,0,1,2.12-3.2A16.47,16.47,0,0,1,67,6.12a15.83,15.83,0,0,0,2-.68,2.35,2.35,0,0,1,1-.19,1,1,0,0,1,.76.3,1.07,1.07,0,0,1,.3.78,4.55,4.55,0,0,0,.13.91,4.6,4.6,0,0,1,.13.91,1.07,1.07,0,0,1-.3.78A1,1,0,0,1,70.22,9.24Z"/><path class="cls-1" d="M82.67,18.18a1,1,0,0,1-1-.82,18.14,18.14,0,0,1-.45-2.5A21.56,21.56,0,0,1,81,12.3q0-.28,0-.85t0-.85q0-2-1-2a3.18,3.18,0,0,0-2.44,1.24,14.92,14.92,0,0,0-1.5,2.42,18.09,18.09,0,0,1-.34,4.84,1,1,0,0,1-.93.67,1.12,1.12,0,0,1-.77-.3,1,1,0,0,1-.33-.73,1.87,1.87,0,0,1,.1-.47A8.47,8.47,0,0,0,74,14.67l0-1.59,0-7.9q.07-1.33.08-1.79a5.08,5.08,0,0,0-.1-1,4.93,4.93,0,0,1-.1-1A1,1,0,0,1,74.21.6,1.07,1.07,0,0,1,75,.3a1,1,0,0,1,1,.95,11.7,11.7,0,0,1,.17,1.88q0,1.13-.08,2.35T76,7.83v.95A6.47,6.47,0,0,1,77.94,7a4.17,4.17,0,0,1,2.13-.59,2.58,2.58,0,0,1,2.45,1.16,6.26,6.26,0,0,1,.54,2.75l.09,2.05.21,2.23a22.12,22.12,0,0,0,.37,2.21,1.42,1.42,0,0,1,0,.31,1,1,0,0,1-.32.74A1.11,1.11,0,0,1,82.67,18.18Z"/><path class="cls-1" d="M94.78,18.22q-.2,0-.74-.47a4.8,4.8,0,0,1-.72-.78,13.74,13.74,0,0,1-1.82.84,4,4,0,0,1-1.31.29,4.44,4.44,0,0,1-3.66-1.42,6.39,6.39,0,0,1-1.08-4.08,6.16,6.16,0,0,1,1.79-4.45A5.74,5.74,0,0,1,91.5,6.29a5.52,5.52,0,0,1,2.09.48q1.46.6,1.46,1.45a.73.73,0,0,1-.21.52,7.79,7.79,0,0,0-.17,1.34q-.06.93-.07,2.4a8.75,8.75,0,0,0,.18,2.11,16,16,0,0,0,.68,1.89q.07.19.25.57l.06.18a.93.93,0,0,1-.3.71A1,1,0,0,1,94.78,18.22Zm-2.23-7.47a9.29,9.29,0,0,1,.06-1q.06-.54.18-1.15a5.29,5.29,0,0,0-.68-.3,1.51,1.51,0,0,0-.46-.1,3.72,3.72,0,0,0-2.87,1.36,4.57,4.57,0,0,0-1.21,3.13,4.58,4.58,0,0,0,.62,2.64,2.14,2.14,0,0,0,1.87.88,3.74,3.74,0,0,0,1.75-.38A6.43,6.43,0,0,0,92.89,15,39,39,0,0,1,92.54,10.75Z"/><path class="cls-1" d="M102.5,18.19a5.27,5.27,0,0,1-3.67-1.33,4.73,4.73,0,0,1-1.55-3.68,8.5,8.5,0,0,1,1.45-4.5q1.61-2.58,3.63-2.58a6.71,6.71,0,0,1,2.35.49q1.64.63,1.64,1.55a1.09,1.09,0,0,1-.27.73.87.87,0,0,1-1.21.13l-.45-.37a3.35,3.35,0,0,0-2.07-.5q-1.1,0-2.17,2a6.74,6.74,0,0,0-1,3.1,2.77,2.77,0,0,0,1,2.23,3.47,3.47,0,0,0,2.32.76,3.24,3.24,0,0,0,1.38-.34l1.25-.67a1.2,1.2,0,0,1,.46-.17.9.9,0,0,1,.69.32,1,1,0,0,1,.29.73q0,.78-1.65,1.51A6.23,6.23,0,0,1,102.5,18.19Z"/><path class="cls-1" d="M117.9,18a1,1,0,0,1-.91-.62,18,18,0,0,0-1.69-2.57l-1.9-2.59q-.62.49-1.93,1.39-.12,1.67-.12,3.24a1.07,1.07,0,0,1-.3.78,1,1,0,0,1-.76.3q-1.09,0-1.08-1.46,0-.89.12-2.67t.12-2.67q0-1.63,0-3.73t0-3.71q0-.48,0-1.14t0-1.14a1.07,1.07,0,0,1,.3-.78,1.1,1.1,0,0,1,1.51,0,1.07,1.07,0,0,1,.3.78q0,.49.05,1.17t.05,1.17l-.08,3.46q-.05,1.87,0,3.74a29.94,29.94,0,0,0,2.81-2.45L116.74,6a1.08,1.08,0,0,1,1.86.74,1.09,1.09,0,0,1-.31.72A38.66,38.66,0,0,1,115,10.79L117.37,14Q119,16.22,119,16.9a1,1,0,0,1-.34.74A1.12,1.12,0,0,1,117.9,18Z"/><path class="cls-1" d="M123.56,9.07l-.16,5.34q0,.85-.09,2.49Q123.2,18,122.26,18t-1.05-1.1q0-1.3.12-3.9t.12-3.9q0-1.7.05-3.88t.05-3.88a1.06,1.06,0,1,1,2.12,0q0,1.7-.05,3.88T123.56,9.07Z"/><path class="cls-1" d="M131.87,18a6.07,6.07,0,0,1-3.93-1.21A4.58,4.58,0,0,1,126.3,13a7.84,7.84,0,0,1,1.35-4.68,4.6,4.6,0,0,1,3.93-2.06,6.17,6.17,0,0,1,2.91.6,2.42,2.42,0,0,1,1.39,2.28,2.45,2.45,0,0,1-1.21,2,17.13,17.13,0,0,1-2.28,1.2l-4.1,1.94a3.92,3.92,0,0,0,1.5,1.34,4.6,4.6,0,0,0,2.09.45,6.58,6.58,0,0,0,1.74-.28,2.76,2.76,0,0,0,1.63-.93q.36-.57.78-.57a.94.94,0,0,1,.67.28.89.89,0,0,1,.3.66q0,1.19-1.92,2.05A7.85,7.85,0,0,1,131.87,18Zm-.29-9.79a2.75,2.75,0,0,0-2.18,1,6.84,6.84,0,0,0-1.3,3.06l3.3-1.57a14.15,14.15,0,0,0,2.77-1.64A3.66,3.66,0,0,0,131.58,8.22Z"/><path class="cls-1" d="M150.27,3.61a4.54,4.54,0,0,1-.66-.08,4.56,4.56,0,0,0-.72-.08l-1.24,0,.05,1.28q0,8-1.06,11.63-.71,2.41-2.48,2.41a6.21,6.21,0,0,1-3.71-1.35,4.28,4.28,0,0,1-2-3.45q0-1.32,1.08-1.32t1.08,1.3q0,.89,1.27,1.77a4.09,4.09,0,0,0,2.3.84q.88,0,1.22-5.4.16-2.56.16-6.42,0-.3-.05-1.16h-.66l-1.26,0-1.27,0a1.12,1.12,0,0,1-.79-.3,1.06,1.06,0,0,1-.32-.82q0-1.11,1.49-1.11l1.08,0,1.07,0q.68,0,2-.08t2-.08q2.45,0,2.45,1.25a1.13,1.13,0,0,1-.29.76A1,1,0,0,1,150.27,3.61Z"/><path class="cls-1" d="M161.93,18.22q-.2,0-.74-.47a4.8,4.8,0,0,1-.72-.78,13.74,13.74,0,0,1-1.82.84,4,4,0,0,1-1.31.29,4.44,4.44,0,0,1-3.66-1.42,6.39,6.39,0,0,1-1.08-4.08,6.17,6.17,0,0,1,1.79-4.45,5.74,5.74,0,0,1,4.27-1.85,5.52,5.52,0,0,1,2.09.48q1.46.6,1.46,1.45a.73.73,0,0,1-.21.52,7.86,7.86,0,0,0-.17,1.34q-.06.93-.07,2.4a8.78,8.78,0,0,0,.18,2.11,16,16,0,0,0,.68,1.89c0,.13.13.32.25.57l.06.18a.93.93,0,0,1-.3.71A1,1,0,0,1,161.93,18.22Zm-2.23-7.47a9.4,9.4,0,0,1,.06-1q.06-.54.18-1.15a5.26,5.26,0,0,0-.68-.3,1.52,1.52,0,0,0-.46-.1,3.72,3.72,0,0,0-2.87,1.36,4.57,4.57,0,0,0-1.21,3.13,4.59,4.59,0,0,0,.62,2.64,2.14,2.14,0,0,0,1.87.88,3.74,3.74,0,0,0,1.75-.38A6.43,6.43,0,0,0,160,15,39,39,0,0,1,159.69,10.75Z"/><path class="cls-1" d="M178.44,18.4a1,1,0,0,1-1-.93q-.19-1.18-.39-3.33l-.37-3.33a7.27,7.27,0,0,0-.37-1.45q-.36-1-.79-1a3.76,3.76,0,0,0-1.48.68,6.12,6.12,0,0,0-1.35,1q0,1,.05,2L173,15a24.41,24.41,0,0,1,.2,2.8,1.07,1.07,0,0,1-.3.78,1.09,1.09,0,0,1-1.51,0,1.07,1.07,0,0,1-.3-.78q0-1.3-.26-3.84t-.26-3.84a4,4,0,0,0-.32-1.77,5.38,5.38,0,0,0-1.53,1.12l-1.27,1.42a6.4,6.4,0,0,1-.55.68q0,.64-.12,1.9t-.12,1.86a5.55,5.55,0,0,0,.1.9,5.57,5.57,0,0,1,.1.84,1,1,0,0,1-.33.74,1.1,1.1,0,0,1-.77.3q-1.21,0-1.21-2.76,0-.64.12-1.92t.12-1.92q0-.57-.1-1.71T164.64,8q0-2.44,1.1-2.44a1,1,0,0,1,.77.37,1.13,1.13,0,0,1,.35.79,5.59,5.59,0,0,1-.05.63,5.65,5.65,0,0,0-.05.66l0,1.13a6.45,6.45,0,0,1,1.64-2.08,3.12,3.12,0,0,1,1.85-.93,2.32,2.32,0,0,1,2.32,1.68A3.84,3.84,0,0,1,174,6.65a4.27,4.27,0,0,1,1.87-.39A2.46,2.46,0,0,1,178.3,8.2a28.16,28.16,0,0,1,.44,3q.3,1.85.77,6.16a.87.87,0,0,1-.29.73A1.11,1.11,0,0,1,178.44,18.4Z"/><path class="cls-1" d="M190.28,18.22q-.2,0-.74-.47a4.8,4.8,0,0,1-.72-.78,13.74,13.74,0,0,1-1.82.84,4,4,0,0,1-1.31.29A4.44,4.44,0,0,1,182,16.67a6.39,6.39,0,0,1-1.08-4.08,6.17,6.17,0,0,1,1.79-4.45A5.74,5.74,0,0,1,187,6.29a5.52,5.52,0,0,1,2.09.48q1.46.6,1.46,1.45a.73.73,0,0,1-.21.52,7.86,7.86,0,0,0-.17,1.34q-.06.93-.07,2.4a8.78,8.78,0,0,0,.18,2.11,16,16,0,0,0,.68,1.89c0,.13.13.32.25.57l.06.18a.93.93,0,0,1-.3.71A1,1,0,0,1,190.28,18.22ZM188,10.75a9.4,9.4,0,0,1,.06-1q.06-.54.18-1.15a5.26,5.26,0,0,0-.68-.3,1.52,1.52,0,0,0-.46-.1,3.72,3.72,0,0,0-2.87,1.36,4.57,4.57,0,0,0-1.21,3.13,4.59,4.59,0,0,0,.62,2.64,2.14,2.14,0,0,0,1.87.88,3.74,3.74,0,0,0,1.75-.38,6.43,6.43,0,0,0,1.08-.82A39,39,0,0,1,188,10.75Z"/><path class="cls-1" d="M200.33,8.36l-.53,0-.53,0q-.25,0-1.46.16l.2,6.35v1q0,2.35-1.13,2.35a1.09,1.09,0,0,1-.75-.28.89.89,0,0,1-.32-.7q0-.41,0-1.22t0-1.22l-.21-6.27q-.78,0-2.38-.18a1,1,0,0,1-1-1.06,1.11,1.11,0,0,1,.29-.78,1,1,0,0,1,.74-.31l2.26.18q0-.55,0-1.47t0-1.33a1,1,0,0,1,.31-.75,1.07,1.07,0,0,1,.76-.3q1,0,1.13,1.58,0,.4,0,1l0,.62v.67q1.33-.17,1.53-.17a6.15,6.15,0,0,1,1.46.11.94.94,0,0,1,.66,1,1.08,1.08,0,0,1-.29.78A1,1,0,0,1,200.33,8.36Z"/><path class="cls-1" d="M212.5,18.18a1,1,0,0,1-1-.82,18.14,18.14,0,0,1-.45-2.5,21.56,21.56,0,0,1-.19-2.56q0-.28,0-.85t0-.85q0-2-1-2a3.18,3.18,0,0,0-2.44,1.24,15,15,0,0,0-1.5,2.42,18.07,18.07,0,0,1-.34,4.84,1,1,0,0,1-.93.67,1.12,1.12,0,0,1-.77-.3,1,1,0,0,1-.33-.73,1.87,1.87,0,0,1,.1-.47,8.42,8.42,0,0,0,.12-1.57l0-1.59,0-7.9q.07-1.33.08-1.79a5.11,5.11,0,0,0-.1-1,4.93,4.93,0,0,1-.1-1A1,1,0,0,1,204,.6a1.07,1.07,0,0,1,.76-.3,1,1,0,0,1,1,.95A11.7,11.7,0,0,1,206,3.13q0,1.13-.08,2.35t-.05,2.35v.95A6.48,6.48,0,0,1,207.77,7a4.17,4.17,0,0,1,2.13-.59,2.58,2.58,0,0,1,2.45,1.16,6.25,6.25,0,0,1,.54,2.75l.09,2.05.21,2.23a22.26,22.26,0,0,0,.37,2.21,1.42,1.42,0,0,1,0,.31,1,1,0,0,1-.32.74A1.11,1.11,0,0,1,212.5,18.18Z"/><path class="cls-1" d="M220.25,18.14a4.19,4.19,0,0,1-3.1-1.33,5.71,5.71,0,0,1-1.53-4,7,7,0,0,1,1.22-4.28A4.81,4.81,0,0,1,221,6.37a3.53,3.53,0,0,1,3.25,2,7.55,7.55,0,0,1,.85,3.82,7,7,0,0,1-1.25,4.07A4.28,4.28,0,0,1,220.25,18.14Zm.64-9.59a2.7,2.7,0,0,0-2.46,1.5,5.46,5.46,0,0,0-.7,2.77,3.33,3.33,0,0,0,.85,2.43,2.26,2.26,0,0,0,1.67.72,2.61,2.61,0,0,0,1.92-.82,3.46,3.46,0,0,0,1-2.44Q223.29,8.56,220.89,8.55Z"/><path class="cls-1" d="M236,18.27q-.92,0-1-1l-.3-2.35a19.8,19.8,0,0,1-.15-2.35q0-.3,0-1t0-1q0-2.32-.86-2.32a3,3,0,0,0-2.3,1.43,9.72,9.72,0,0,0-1.55,3.29q0,.42-.1,1.05a8.75,8.75,0,0,0-.06,1q0,.32.06,1t.06,1a1.07,1.07,0,0,1-.3.78,1.11,1.11,0,0,1-1.52,0,1.08,1.08,0,0,1-.29-.78q0-.32-.07-1t-.07-1q0-1.11.16-3.07t.16-3.07q0-.34,0-1t0-1a1,1,0,0,1,.31-.76,1,1,0,0,1,.76-.3q1,0,1.08,1.4l0,1.26Q231.85,6,233.75,6a2.42,2.42,0,0,1,2.4,1.51,7.89,7.89,0,0,1,.5,3v2.08a14.86,14.86,0,0,0,.23,2.3,14.93,14.93,0,0,1,.23,2.29,1,1,0,0,1-.31.77A1.06,1.06,0,0,1,236,18.27Z"/></svg>