<?xml version="1.0" encoding="UTF-8" standalone="no"?>
<svg width="24px" height="25px" viewBox="0 0 24 25" version="1.1" xmlns="http://www.w3.org/2000/svg" xmlns:xlink="http://www.w3.org/1999/xlink">
    <!-- Generator: Sketch 39.1 (31720) - http://www.bohemiancoding.com/sketch -->
    <title>logo</title>
    <desc>Created with Sketch.</desc>
    <defs></defs>
    <g id="Welcome" stroke="none" stroke-width="1" fill="none" fill-rule="evenodd">
        <g id="Desktop-HD" transform="translate(-360.000000, -974.000000)" fill="#CB5599">
            <g id="Footer" transform="translate(120.000000, 972.000000)">
                <g id="logo" transform="translate(240.000000, 2.000000)">
                    <path d="M10.6045977,0.506875 C10.6045977,0.22625 10.8255526,0 11.0972591,0 L12.8475685,0 C13.1186561,0 13.339611,0.22625 13.339611,0.5075 L13.339611,2.30625 C13.339611,2.584375 13.119275,2.8125 12.8475685,2.8125 L11.0972591,2.8125 C10.8261715,2.8125 10.6045977,2.58625 10.6045977,2.30625 L10.6045977,0.506875" id="Shape"></path>
                    <path d="M10.4777188,22.085 C10.4777188,21.80625 10.6980548,21.57875 10.9697613,21.57875 L12.7200707,21.57875 C12.9923961,21.57875 13.2121132,21.805 13.2121132,22.085 L13.2121132,23.884375 C13.2121132,24.164375 12.993015,24.391875 12.7200707,24.391875 L10.9697613,24.391875 C10.6986737,24.391875 10.4777188,24.165625 10.4777188,23.884375 L10.4777188,22.085" id="Shape"></path>
                    <path d="M3.67886826,18.035 C3.87197171,17.8375 4.1826702,17.8375 4.37515473,18.035 L5.61299735,19.3075 C5.80548187,19.504375 5.80548187,19.825625 5.61299735,20.02375 L4.37515473,21.29625 C4.1826702,21.49375 3.87197171,21.49375 3.67886826,21.29625 L2.44164456,20.02375 C2.24916004,19.82625 2.24916004,19.505625 2.44164456,19.3075 L3.67886826,18.035" id="Shape"></path>
                    <path d="M0,11.083125 C0,10.803125 0.219717065,10.575 0.49204244,10.575 L2.2423519,10.575 C2.51343943,10.575 2.73439434,10.801875 2.73439434,11.083125 L2.73439434,12.8825 C2.73439434,13.161875 2.51405836,13.388125 2.2423519,13.388125 L0.49204244,13.388125 C0.220335986,13.388125 0,13.1625 0,12.8825 L0,11.083125" id="Shape"></path>
                    <path d="M21.0829355,11.115625 C21.0829355,10.835625 21.3032714,10.60875 21.5749779,10.60875 L23.3252874,10.60875 C23.5969938,10.60875 23.8173298,10.834375 23.8173298,11.115625 L23.8173298,12.915 C23.8173298,13.194375 23.5976127,13.421875 23.3252874,13.421875 L21.5749779,13.421875 C21.3038904,13.421875 21.0829355,13.195625 21.0829355,12.915 L21.0829355,11.115625" id="Shape"></path>
                    <path d="M2.81856764,4.990625 C2.62608311,4.793125 2.62608311,4.4725 2.81856764,4.274375 L4.05641026,3.001875 C4.24827586,2.805625 4.5602122,2.805625 4.75207781,3.001875 L5.98992042,4.274375 C6.18178603,4.471875 6.18178603,4.7925 5.98992042,4.990625 L4.75207781,6.263125 C4.55959328,6.459375 4.24827586,6.459375 4.05641026,6.263125 L2.81856764,4.990625" id="Shape"></path>
                    <path d="M19.0596817,2.99625 C19.2515473,2.8 19.5628647,2.8 19.7553492,2.99625 L20.9931919,4.26875 C21.1856764,4.46625 21.1850575,4.786875 20.9931919,4.985 L19.7553492,6.255625 C19.5628647,6.45375 19.2515473,6.45375 19.0596817,6.255625 L17.8218391,4.985 C17.6293546,4.786875 17.6293546,4.46625 17.8218391,4.26875 L19.0596817,2.99625" id="Shape"></path>
                    <path d="M11.8801945,6.8825 C14.7693192,6.8825 17.1113174,9.29125 17.1113174,12.260625 C17.1113174,13.025 16.9559682,13.7525 16.6762157,14.41125 C16.6725022,14.416875 17.1435013,17.589375 17.1435013,17.589375 C17.1435013,17.589375 14.1646331,17.104375 14.1565871,17.104375 C13.4689655,17.446875 12.6965517,17.63875 11.8801945,17.63875 C8.99106985,17.63875 6.65030946,15.23 6.65030946,12.260625 C6.64969054,9.290625 8.99106985,6.8825 11.8801945,6.8825 L11.8801945,6.8825 Z M11.8801945,4.829375 C7.89496021,4.829375 4.65181256,8.163125 4.65181256,12.261875 C4.65181256,16.36 7.89434129,19.694375 11.8801945,19.694375 C12.7559682,19.694375 13.6038904,19.536875 14.4115827,19.226875 C15.0366932,19.3275 16.0690539,19.496875 16.8303271,19.62125 L19.5300619,20.059375 L19.1178603,17.2825 C18.9990274,16.480625 18.8263484,15.31 18.7291777,14.646875 C18.9816976,13.880625 19.1091954,13.081875 19.1091954,12.263125 C19.1091954,8.163125 15.8660477,4.829375 11.8801945,4.829375 L11.8801945,4.829375 Z" id="Shape"></path>
                </g>
            </g>
        </g>
    </g>
</svg>